<svg width="32" height="32" viewBox="0 0 32 32" fill="none" xmlns="http://www.w3.org/2000/svg">
  <defs>
    <linearGradient id="heartGradient" x1="0%" y1="0%" x2="100%" y2="100%">
      <stop offset="0%" style="stop-color:#ec4899"/>
      <stop offset="100%" style="stop-color:#8b5cf6"/>
    </linearGradient>
    <filter id="glow">
      <feGaussianBlur stdDeviation="2" result="coloredBlur"/>
      <feMerge>
        <feMergeNode in="coloredBlur"/>
        <feMergeNode in="SourceGraphic"/>
      </feMerge>
    </filter>
  </defs>

  <!-- Cosmic background circle -->
  <circle cx="16" cy="16" r="16" fill="url(#heartGradient)" opacity="0.1"/>

  <!-- Heart shape -->
  <path d="M16 28C16 28 6 20 6 13C6 10.7909 6.89553 8.67816 8.50761 7.12274C10.1197 5.56731 12.3139 4.72727 14.6 4.72727C15.4851 4.72727 16.3668 4.89854 17.2008 5.23318C18.0348 5.56782 18.8064 6.06031 19.4767 6.68182C20.147 6.06031 20.9186 5.56782 21.7526 5.23318C22.5866 4.89854 23.4683 4.72727 24.3534 4.72727C26.6395 4.72727 28.8337 5.56731 30.4458 7.12274C32.0579 8.67816 32.9534 10.7909 32.9534 13C32.9534 20 22.9534 28 16 28Z"
        fill="url(#heartGradient)"
        filter="url(#glow)"
        transform="scale(0.4) translate(24, 28)"/>

  <!-- Lock element -->
  <rect x="12" y="14" width="8" height="6" rx="1" fill="white" opacity="0.9"/>
  <path d="M14 14V12C14 10.8954 14.8954 10 16 10C17.1046 10 18 10.8954 18 12V14"
        stroke="white"
        stroke-width="1.5"
        fill="none"
        opacity="0.9"/>
  <circle cx="16" cy="17" r="1" fill="url(#heartGradient)"/>
</svg>